<svg width="14" height="14" viewBox="0 0 14 14" fill="none" xmlns="http://www.w3.org/2000/svg">
<path d="M13.3333 9.46C13.3333 11.8867 11.8867 13.3333 9.46 13.3333H8.66667C8.3 13.3333 8 13.0333 8 12.6667V8.82C8 8.64 8.14667 8.48667 8.32667 8.48667L9.5 8.46667C9.59333 8.46 9.67333 8.39333 9.69333 8.3L9.92667 7.02667C9.9312 6.99781 9.92942 6.96831 9.92144 6.9402C9.91347 6.9121 9.89949 6.88605 9.88048 6.86387C9.86147 6.84169 9.83787 6.8239 9.81132 6.81172C9.78476 6.79954 9.75588 6.79327 9.72667 6.79333L8.30667 6.81333C8.12 6.81333 7.97333 6.66667 7.96667 6.48667L7.94 4.85333C7.94 4.74667 8.02667 4.65333 8.14 4.65333L9.74 4.62667C9.85333 4.62667 9.94 4.54 9.94 4.42667L9.91333 2.82667C9.91333 2.71333 9.82667 2.62667 9.71333 2.62667L7.91333 2.65333C7.65057 2.65733 7.39119 2.71313 7.15003 2.81755C6.90888 2.92197 6.6907 3.07295 6.508 3.26184C6.32531 3.45073 6.18168 3.67382 6.08535 3.91832C5.98903 4.16282 5.9419 4.42392 5.94667 4.68667L5.98 6.52C5.98667 6.70667 5.84 6.85333 5.65333 6.86L4.85333 6.87333C4.74 6.87333 4.65333 6.96 4.65333 7.07333L4.67333 8.34C4.67333 8.45333 4.76 8.54 4.87333 8.54L5.67333 8.52667C5.86 8.52667 6.00667 8.67333 6.01333 8.85333L6.07333 12.6533C6.08 13.0267 5.78 13.3333 5.40667 13.3333H3.87333C1.44667 13.3333 0 11.8867 0 9.45333V3.87333C0 1.44667 1.44667 0 3.87333 0H9.46C11.8867 0 13.3333 1.44667 13.3333 3.87333V9.46Z" fill="#FF8A65"/>
</svg>
