<svg width="14" height="14" viewBox="0 0 14 14" fill="none" xmlns="http://www.w3.org/2000/svg">
<path d="M0 3.53004C0 1.58048 1.58043 3.95016e-05 3.52999 3.2956e-05L9.81576 1.18519e-05C11.7653 5.30627e-06 13.3458 1.58044 13.3458 3.53001V9.8152C13.3458 11.7648 11.7653 13.3452 9.81579 13.3452L3.53001 13.3452C1.58044 13.3452 0 11.7648 0 9.81523V3.53004Z" fill="#FF8A65"/>
<path d="M10.7891 4.4329C10.489 4.56329 10.1715 4.64919 9.84656 4.6879C10.188 4.48796 10.4448 4.17032 10.5687 3.79456C10.2459 3.98333 9.89332 4.11578 9.52606 4.18623C9.37141 4.02415 9.18542 3.89521 8.97939 3.80725C8.77335 3.71929 8.55159 3.67415 8.32756 3.67456C7.42056 3.67456 6.68656 4.3979 6.68656 5.28956C6.68592 5.41359 6.70013 5.53725 6.7289 5.6579C6.07851 5.62741 5.44165 5.46149 4.85906 5.17077C4.27647 4.88005 3.76098 4.47092 3.34556 3.96956C3.19982 4.21525 3.12275 4.49557 3.1224 4.78123C3.1224 5.34123 3.41456 5.83623 3.85573 6.12623C3.59435 6.12003 3.33833 6.05085 3.1094 5.92456V5.94456C3.1094 6.7279 3.67606 7.37956 4.42606 7.5279C4.28503 7.56549 4.13969 7.58454 3.99373 7.58456C3.89016 7.58474 3.78682 7.57469 3.68523 7.55456C3.89373 8.19623 4.50056 8.6629 5.2194 8.67623C4.63529 9.12638 3.91817 9.36969 3.18073 9.3679C3.04983 9.3677 2.91906 9.35991 2.78906 9.34456C3.53926 9.8236 4.4113 10.077 5.3014 10.0746C8.32406 10.0746 9.9754 7.6129 9.9754 5.4779C9.9754 5.4079 9.97356 5.3379 9.97023 5.26956C10.2907 5.04157 10.568 4.75825 10.7891 4.4329Z" fill="white"/>
</svg>
